# xmcd CD database file
#
# Track frame offsets:
#	150
#	13449
#	22753
#	34593
#	68829
#	83304
#	96402
#	112791
#	126219
#	139194
#	156466
#	165349
#	175141
#	203433
#
# Disc length: 2875 seconds
#
# Revision: 0
# Processed by: cddbd v1.4PL0 Copyright (c) Steve Scherf et al.
# Submitted via: CDex 1.50beta9
#
DISCID=a60b390e
DTITLE=Various Artist - Jazz Cafe - Mocha
DYEAR=1900
DGENRE=Jazz
TTITLE0=Mean To Me - Sarah Vaughan
TTITLE1=Don't Get Around Much Anymore /Tony Bennett
TTITLE2=When You Smiling - Jimmy Rushing
TTITLE3=Take An "A" Train - Duke Ellington
TTITLE4=On The Sunny Side Of The Street - Benny Goodman
TTITLE5=My Favorite Song - Dave Brubeck
TTITLE6=I Married An Angel - Chet Baker
TTITLE7=What A Little Moonlight Can Do - Billie Holiday
TTITLE8=Whe Wang Wang Blues - Benny Goodman
TTITLE9=Mack The Knife - Louis Armstrong
TTITLE10=Raggy Waltz - Carmen Mcrae
TTITLE11=There'll Be Some Changes Made - Jimmy Rushing
TTITLE12=Jelly Roll - Charles Mingus
TTITLE13=Satin Doll - Duke Ellington
EXTD=
EXTT0=
EXTT1=
EXTT2=
EXTT3=
EXTT4=
EXTT5=
EXTT6=
EXTT7=
EXTT8=
EXTT9=
EXTT10=
EXTT11=
EXTT12=
EXTT13=
PLAYORDER=
